<svg xmlns="http://www.w3.org/2000/svg" width="154.142" height="24.322" viewBox="0 0 154.142 24.322">
    <path data-name="Path 400" d="M56.833 29.671c-.012 0 .012-.006 0 0s0 .068.206.213a4.689 4.689 0 0 1-2.785 8.516v3.537c4.389 0 8.383-3.129 8.383-7.59a7.9 7.9 0 0 0-1.524-4.7 4.975 4.975 0 0 0 .475-.68c.27-.475.318-1.05.318-2.972v-8.341H50.648V24.3h-3.593v3.65h7.26v-6.56h4.052v5.655a2.915 2.915 0 0 1-1.534 2.625" transform="translate(-39.264 -17.654)" style="fill:#009583"/>
    <path data-name="Path 401" d="M45.556 17.654h-1.044a7.1 7.1 0 0 0-5.242 2.17c-1.406 1.6-1.54 3.015-1.54 5.359v16.749h11.438v-6.574h3.621v-3.694h-7.264v6.627h-4.156V24.414s-.265-3.015 3.362-3.1l.827-.039z" style="fill:#00829b" transform="translate(-37.73 -17.654)"/>
    <path data-name="Path 402" d="M139.976 33.948v2.842l-11.181-.013v-3.89h9.83c1.43 0 1.351 1.06 1.351 1.06m-2.177.317h-6.979v1.19h6.98z" transform="translate(-52.711 -20.16)" style="fill:#231815"/>
    <path data-name="Path 403" d="M126.295 45.349v-6.844h13.865a1.718 1.718 0 0 1 .679.194 1.533 1.533 0 0 1 .884 1.317v5.334H139.4v-.471h-10.788v.471zm13.1-5.295h-4.322v.931h4.327zm-6.454.006h-4.319v.929h4.319zm6.454 2.382h-4.322v.932h4.327zm-6.454.006h-4.319v.932h4.319z" transform="translate(-52.299 -21.084)" style="fill:#231815"/>
    <path data-name="Rectangle 92" transform="translate(76.072 10.53)" style="fill:#231815" d="M0 0h11.193v1.458H0z"/>
    <path data-name="Path 404" d="M125.275 31.33v-4.484h7.407v-1.163h2.237v1.087h5.848s1.5.115 1.5 1.363v3.2h-2.039v-2.57h-12.8v2.567z" transform="translate(-52.132 -18.975)" style="fill:#231815"/>
    <path data-name="Path 405" d="m168.059 32.345 1.419-4.682a1.275 1.275 0 0 0-1.242-1.517h-5.924v17.227h2.153v-3.115s.647.961 1 1.441a3.562 3.562 0 0 0 1.705-.429 4.773 4.773 0 0 0 2.578-3.614 7.417 7.417 0 0 0-1.684-5.31m-.49 5.487a3.1 3.1 0 0 1-1.872 1.81 2.371 2.371 0 0 1-1.262.051V28.278h2.756c-.414 1.488-.937 3.036-1.4 4.5.145.269.46.515.636.815.795 1.238 1.573 2.648 1.14 4.235" transform="translate(-58.224 -19.051)" style="fill:#231815"/>
    <path data-name="Path 406" d="M159.657 33.7v-2.23h-3.091l.005-1.69h3.019v-2.137h-3.019v-2.014h-2.344v2.014H150.7v2.183h3.524v1.654H150.7v2.181h3.528v1.63h-3.477v2.227h3.378a6.04 6.04 0 0 1-2.11 4.063l1.279 1.706c3.14-1.758 3.289-5.752 3.289-5.752h3.067v-2.243h-3.086V33.7z" transform="translate(-56.315 -18.966)" style="fill:#231815"/>
    <path data-name="Path 407" d="M75.5 45.057v-8.211h13.4a1.646 1.646 0 0 1 .675.2 1.531 1.531 0 0 1 .877 1.318v6.695h-2.529v-.469h-9.847v.47zm2.578-2.633h9.847v-3.418h-9.849z" transform="translate(-43.943 -20.811)" style="fill:#231815"/>
    <path data-name="Path 408" d="M78.406 33.709h-3.778V31.4l4.356-5.431H81.8l-4.543 5.578h10.287c.374 0 .512-.235.361-.709l-2.065-3.232h2.681l2.318 3.672q1 2.431-1.281 2.43z" transform="translate(-43.8 -19.023)" style="fill:#231815"/>
    <path data-name="Path 409" d="M104.1 26.3h2.348v14.88a1.575 1.575 0 0 1-1.755 1.787H99.1V40.69h4.559a.4.4 0 0 0 .446-.455V33.7H99.1v-2.27h5z" transform="translate(-47.825 -19.076)" style="fill:#231815"/>
    <path data-name="Path 410" d="M113.407 40.235v-4.567a37.1 37.1 0 0 0 5.311-4.59l-1.482-1.7a32.608 32.608 0 0 1-3.829 3.444V26.3h-2.354v14.88a1.574 1.574 0 0 0 1.755 1.786h5.508v-2.275h-4.464a.4.4 0 0 1-.444-.456" transform="translate(-49.792 -19.076)" style="fill:#231815"/>
    <path data-name="Path 411" d="M195.291 41.561a12.8 12.8 0 0 1-2.989-2.705 19.174 19.174 0 0 0 2.677-2.407l.12-.132-1.219-1.362-.15.166a21.4 21.4 0 0 1-2.318 2.105 9.89 9.89 0 0 1-.49-2.364h2.661a.622.622 0 0 0 .659-.659v-7.577a.589.589 0 0 0-.646-.632h-7.008a.575.575 0 0 0-.619.632v14.353l-1.232.3.058.2.455 1.637.18-.039a25.858 25.858 0 0 0 5.305-1.651l.169-.074-.6-1.8-.2.085c-.644.271-1.415.547-2.273.821v-5.6h1.221a9.69 9.69 0 0 0 2.191 5.738 14.169 14.169 0 0 0 2.51 2.326l.126.1 1.64-1.315zm-3.1-8.52h-4.355v-1.7h4.542v1.506c0 .155-.04.2-.186.2m-4.355-3.523v-1.552c0-.012.019-.119.019-.119l.138-.039h4.233c.114 0 .145.031.151.151v1.552z" transform="translate(-61.914 -19.026)" style="fill:#231815"/>
    <path data-name="Path 412" d="m183.192 41.858-7.013 1.316-.617-1.984 2.919-.474v-.826s-1.334.233-1.5-.157c-.482-1.023-.915-2.118-1.328-3.223h1.971c.154.321.766 1.7.866 2l.006-2.987h-2.922v-1.816h2.953v-1.125h-1.947v-1.528l-.343.29-1.348-1.472A16.53 16.53 0 0 0 179 25.944h1.134a13.578 13.578 0 0 0 4.161 3.905l-1.445 1.491-.31-.3v1.538h-1.95V33.7h2.791v1.822h-2.791V37.9a14.659 14.659 0 0 0 1.037-1.408l1.908-.017a12.006 12.006 0 0 1-1.559 2.536 3.465 3.465 0 0 1-1.386.551v.8l2.385-.424s.27 1.344.264 1.293m-3.691-12.984a14.959 14.959 0 0 1-2.58 2.593h5.3a23.546 23.546 0 0 1-2.718-2.589" transform="translate(-60.294 -19.018)" style="fill:#231815"/>
    <path data-name="Rectangle 93" transform="translate(144.436 7.308)" style="fill:#231815" d="M0 0h9.008v2.091H0z"/>
    <path data-name="Path 413" d="M220.124 34.163v-2.13h-10.658V34.2h6.23l.005 6.681a1.679 1.679 0 0 1-.213.747c-.131.166-.244.708-2.151.655l.944 1.763a2.866 2.866 0 0 0 2.979-1.024 3.439 3.439 0 0 0 .536-1.656l-.01-7.2z" transform="translate(-65.981 -20.019)" style="fill:#231815"/>
    <path data-name="Path 414" d="M204.055 36.107a10.66 10.66 0 0 1-1.3 1.039l-1.706-1.308a14.784 14.784 0 0 0 4.7-5.322l1.935.886c-.5.862-1 1.624-1.474 2.3v9.37h-2.161zm.966-10.647 2 .752a15.182 15.182 0 0 1-3.928 5.345l-1.808-1.2a12.449 12.449 0 0 0 3.735-4.9" transform="translate(-64.597 -18.938)" style="fill:#231815"/>
</svg>
