<svg xmlns="http://www.w3.org/2000/svg" width="58" height="58" viewBox="0 0 58 58">
    <defs>
        <linearGradient id="4sgpd95ahb" x1=".253" y1=".059" x2=".744" y2=".967" gradientUnits="objectBoundingBox">
            <stop offset="0" stop-color="#ebebeb"/>
            <stop offset="1" stop-color="#fff"/>
        </linearGradient>
        <filter id="51nclq7fea" x="0" y="0" width="58" height="58" filterUnits="userSpaceOnUse">
            <feOffset dx="3" dy="3"/>
            <feGaussianBlur stdDeviation="4" result="blur"/>
            <feFlood flood-opacity=".122"/>
            <feComposite operator="in" in2="blur"/>
            <feComposite in="SourceGraphic"/>
        </filter>
    </defs>
    <g style="filter:url(#51nclq7fea)">
        <circle data-name="Ellipse 11" cx="17" cy="17" r="17" transform="translate(9 9)" style="fill:url(#4sgpd95ahb)"/>
    </g>
    <path data-name="Icon material-rotate-90-degrees-ccw" d="m30.334 21.656 5.663 5.672-5.672 5.663-5.669-5.663 5.678-5.672zm3.19 5.672-3.2-3.2-3.19 3.2 3.2 3.2zm-13.69-5.471a7.821 7.821 0 0 1 5.556-2.307v-2.832l3.706 3.706-3.706 3.705v-2.831a6.118 6.118 0 1 0 2.482 11.7l1.3 1.3a7.859 7.859 0 0 1-9.338-12.441z"/>
</svg>
