<svg xmlns="http://www.w3.org/2000/svg" width="33" height="33" viewBox="0 0 33 33">
    <g transform="translate(-651 -467)">
        <rect data-name="Rectangle 204" width="33" height="33" rx="2" transform="translate(651 467)" style="fill:#a5a5a5"/>
        <path data-name="Icon open-volume-high" d="M8.912 0 5.336 5.336H0v10.673h5.336l3.575 5.336h1.761V0zm4.429 2.668v2.668a5.534 5.534 0 0 1 1.334.16 5.348 5.348 0 0 1 0 10.352 5.534 5.534 0 0 1-1.334.16v2.668a9.233 9.233 0 0 0 1.921-.24h.08a8 8 0 0 0-2-15.769zm0 5.336v5.336a2.54 2.54 0 0 0 .667-.08 2.69 2.69 0 0 0 2-2.588 2.66 2.66 0 0 0-2-2.588A2.849 2.849 0 0 0 13.341 8z" transform="translate(656.827 472.827)" style="fill:#fff"/>
    </g>
</svg>
