<svg xmlns="http://www.w3.org/2000/svg" width="17" height="17" viewBox="0 0 17 17">
    <g transform="translate(-936.922 -513.922)">
        <circle data-name="Ellipse 7" cx="8.5" cy="8.5" r="8.5" transform="translate(936.922 513.922)" style="fill:#db3f4f"/>
        <path data-name="Path 416" d="m5.392-9.409.49 9.277h2.306l.49-9.277zM7.006.841a1.53 1.53 0 0 0-1.058.437A1.358 1.358 0 0 0 5.5 2.344a1.287 1.287 0 0 0 .45 1.031 1.523 1.523 0 0 0 1.056.425 1.683 1.683 0 0 0 1.1-.409 1.446 1.446 0 0 0 .431-1.05A1.485 1.485 0 0 0 8.1 1.278 1.668 1.668 0 0 0 7.006.841z" transform="translate(938.32 525.113)" style="fill:#fff"/>
    </g>
</svg>
