<svg xmlns="http://www.w3.org/2000/svg" width="15" height="15" viewBox="0 0 15 15">
    <g transform="translate(-17)">
        <circle data-name="Ellipse 7" cx="7.5" cy="7.5" r="7.5" transform="translate(17)" style="fill:#0091bc"/>
        <path data-name="Path 416" d="m5.392-9.409.45 8.518H7.96l.45-8.518zM6.874 0A1.405 1.405 0 0 0 5.9.4a1.247 1.247 0 0 0-.414.979 1.182 1.182 0 0 0 .414.951 1.4 1.4 0 0 0 .971.392 1.545 1.545 0 0 0 1.007-.375 1.328 1.328 0 0 0 .4-.964A1.363 1.363 0 0 0 7.881.4 1.531 1.531 0 0 0 6.874 0z" transform="translate(17.539 10.741)" style="fill:#fff"/>
    </g>
</svg>
